<svg width="50" height="50" viewBox="0 0 50 50" fill="none" xmlns="http://www.w3.org/2000/svg">
<path d="M41.3753 16.8543C41.3753 17.1668 41.3753 17.4793 41.3545 17.771C38.167 16.5835 34.417 17.3126 31.917 19.5626C30.2295 18.0418 28.042 17.1877 25.7087 17.1877C20.5837 17.1877 16.417 21.3752 16.417 26.5418C16.417 32.4377 19.3753 36.7501 22.2087 39.5418C21.9795 39.521 21.792 39.4793 21.6253 39.4168C16.2295 37.5626 4.16699 29.896 4.16699 16.8543C4.16699 11.1043 8.79197 6.4585 14.5003 6.4585C17.8961 6.4585 20.8961 8.08348 22.7711 10.6043C24.667 8.08348 27.667 6.4585 31.042 6.4585C36.7503 6.4585 41.3753 11.1043 41.3753 16.8543Z" fill="#FF0000"/>
<path opacity="0.4" d="M37.5 19.979C35.2708 19.979 33.2499 21.0624 31.9999 22.729C30.7499 21.0624 28.75 19.979 26.5 19.979C22.7083 19.979 19.625 23.0624 19.625 26.8957C19.625 28.3749 19.8542 29.729 20.2708 30.979C22.2292 37.1665 28.25 40.854 31.2291 41.8749C31.6458 42.0207 32.3333 42.0207 32.7708 41.8749C35.75 40.854 41.7708 37.1665 43.7291 30.979C44.1458 29.7082 44.3749 28.354 44.3749 26.8957C44.3749 23.0624 41.2916 19.979 37.5 19.979Z" fill="#FF0000"/>
</svg>
